<svg xmlns="http://www.w3.org/2000/svg" width="33" height="33" viewBox="0 0 33 33">
  <g id="Twitter_social_icons_-_circle_-_blue" data-name="Twitter social icons - circle - blue" transform="translate(6.962 8.014)">
    <g id="Dark_Blue" transform="translate(-6.462 -7.514)">
      <circle id="楕円形_2" data-name="楕円形 2" cx="16" cy="16" r="16" fill="none" stroke="#fff" stroke-width="1"/>
    </g>
    <g id="Logo__x2014__FIXED" transform="translate(-0.346 1.449)">
      <path id="パス_8" data-name="パス 8" d="M95.9,130.575a11.469,11.469,0,0,0,11.547-11.547c0-.177,0-.354-.008-.522a8.315,8.315,0,0,0,2.028-2.1,8.238,8.238,0,0,1-2.331.64,4.056,4.056,0,0,0,1.784-2.247,8.219,8.219,0,0,1-2.575.985,4.061,4.061,0,0,0-7.019,2.777,3.719,3.719,0,0,0,.109.926,11.513,11.513,0,0,1-8.366-4.242,4.056,4.056,0,0,0,1.262,5.412,3.987,3.987,0,0,1-1.835-.5v.051a4.063,4.063,0,0,0,3.257,3.981,4.045,4.045,0,0,1-1.069.143,3.875,3.875,0,0,1-.766-.076,4.052,4.052,0,0,0,3.787,2.819,8.158,8.158,0,0,1-5.041,1.734,7.38,7.38,0,0,1-.968-.059,11.307,11.307,0,0,0,6.2,1.835" transform="translate(-89.7 -115.5)" fill="#fff"/>
    </g>
  </g>
</svg>
